<?xml version="1.0" standalone="no"?>
<!DOCTYPE svg PUBLIC "-//W3C//DTD SVG 20010904//EN"
 "http://www.w3.org/TR/2001/REC-SVG-20010904/DTD/svg10.dtd">
<svg version="1.0" xmlns="http://www.w3.org/2000/svg"
 width="355.000000pt" height="355.000000pt" viewBox="0 0 355.000000 355.000000"
 preserveAspectRatio="xMidYMid meet">
<metadata>
Created by potrace 1.14, written by Peter Selinger 2001-2017
</metadata>
<g transform="translate(0.000000,355.000000) scale(0.100000,-0.100000)"
fill="#000000" stroke="none">
<path d="M2243 3170 c-115 -24 -220 -128 -269 -269 l-23 -66 -148 3 c-132 3
-219 -3 -349 -23 l-41 -7 -12 47 c-29 116 -100 209 -196 256 -54 26 -75 31
-132 30 -115 -2 -214 -68 -258 -174 -17 -42 -21 -212 -5 -267 8 -28 7 -37 -9
-54 -36 -41 -72 -115 -85 -177 -48 -235 135 -452 477 -567 l83 -28 -79 -110
c-134 -184 -216 -313 -223 -349 -8 -44 0 -65 40 -106 32 -32 34 -38 39 -124 3
-56 13 -110 25 -144 l21 -54 -192 7 c-181 6 -282 13 -577 36 -142 11 -274 13
-307 4 -21 -6 -23 -12 -23 -83 l0 -77 94 4 c52 2 161 -1 243 -8 246 -19 609
-38 640 -32 27 5 28 4 11 -15 -10 -11 -18 -29 -18 -40 0 -32 92 -231 156 -338
l57 -96 -19 -42 c-10 -23 -35 -71 -55 -107 -19 -36 -52 -95 -72 -132 l-37 -68
29 0 c28 0 35 10 111 150 59 108 87 150 100 150 33 0 28 26 -17 91 -56 81
-110 179 -163 297 l-41 93 70 67 71 67 43 -24 c47 -27 77 -24 77 8 0 14 -13
26 -42 39 -77 34 -109 87 -128 208 -18 111 -19 110 104 111 l105 1 6 -30 c16
-70 125 -153 259 -198 155 -51 378 7 450 118 14 20 31 68 38 105 l13 68 99 -5
c54 -3 102 -9 107 -13 10 -11 29 -118 29 -169 0 -98 -65 -206 -156 -259 -32
-19 -44 -32 -44 -49 0 -34 28 -41 57 -15 12 13 25 21 27 18 15 -16 75 -100 91
-125 l18 -32 -88 -178 c-48 -99 -101 -215 -117 -259 -16 -44 -34 -85 -40 -92
-8 -10 -2 -31 21 -78 28 -59 34 -65 60 -65 l30 0 -26 62 -27 61 26 76 c24 67
122 276 195 414 22 42 24 53 15 83 l-10 34 46 -4 c26 -3 97 -8 157 -11 169 -8
391 -44 452 -73 58 -27 127 -95 149 -147 18 -45 18 -171 -1 -350 -8 -77 -15
-141 -15 -142 0 -2 82 -3 183 -3 l183 0 13 133 c7 72 15 169 18 215 8 128 -22
215 -105 305 -56 60 -167 115 -282 141 -144 31 -567 78 -730 79 l-156 2 32 42
c35 46 70 130 80 192 4 22 -1 75 -11 126 l-18 88 36 31 c47 40 72 102 57 141
-6 15 -39 64 -74 109 -58 75 -192 285 -184 290 2 1 46 19 98 39 128 50 175 79
271 166 107 98 151 182 157 305 4 71 1 89 -23 146 -15 36 -41 79 -58 97 -25
27 -30 39 -26 70 2 21 3 81 3 133 1 112 -16 153 -95 232 -75 75 -172 107 -266
88z m152 -74 c55 -25 110 -81 132 -134 23 -55 27 -149 9 -225 -9 -38 -16 -70
-16 -72 0 -2 18 -14 40 -26 51 -29 76 -81 88 -179 15 -126 -20 -213 -132 -324
-88 -89 -103 -93 -212 -62 -48 14 -94 26 -101 26 -46 0 -393 144 -476 197 -19
12 -31 15 -41 8 -7 -6 -40 -30 -72 -55 -88 -67 -324 -182 -442 -215 l-100 -28
-57 33 c-31 18 -86 60 -121 92 -129 121 -163 259 -97 399 16 36 47 82 68 102
35 34 37 38 23 55 -9 9 -21 49 -28 89 -22 133 22 241 120 291 87 45 213 13
289 -73 42 -48 70 -106 77 -159 6 -41 5 -45 -16 -48 -28 -4 -49 -33 -35 -47 7
-7 41 -4 100 8 204 43 396 50 595 21 36 -5 69 -5 73 -1 16 16 2 45 -23 51 -32
8 -30 33 9 117 73 155 215 221 346 159z m-492 -945 c20 -7 37 -17 37 -22 0
-15 -102 -76 -159 -95 -65 -21 -144 -13 -216 20 -95 45 -95 45 -11 95 41 24
90 58 108 75 l33 31 85 -46 c47 -25 102 -51 123 -58z m199 -70 c51 -17 124
-38 163 -49 l70 -19 -81 -31 c-306 -118 -711 -132 -1016 -36 l-81 26 79 27
c44 15 104 39 134 53 l55 26 65 -40 c135 -81 245 -88 376 -24 40 20 86 50 101
66 16 16 31 29 35 30 4 0 49 -13 100 -29z m54 -248 c52 -91 107 -178 149 -233
73 -96 80 -150 30 -204 -20 -22 -33 -26 -79 -26 -72 0 -380 37 -431 51 l-40
12 42 14 c69 23 66 45 -12 87 -27 15 -42 25 -32 22 77 -24 93 -10 59 48 l-21
35 46 -29 c55 -35 115 -56 203 -70 36 -6 83 -14 104 -19 30 -7 44 -6 63 6 13
9 22 19 21 22 -2 3 -25 48 -51 98 -39 76 -97 214 -97 229 0 2 4 4 10 4 5 0 21
-21 36 -47z m-830 -40 c-19 -38 -69 -122 -110 -188 -63 -99 -73 -121 -60 -128
32 -18 194 28 292 84 45 25 53 27 47 12 -27 -64 -13 -82 51 -64 21 6 39 9 41
7 2 -2 -15 -16 -37 -31 -24 -17 -40 -36 -40 -48 0 -17 5 -19 41 -14 57 8 45
-9 -31 -43 -201 -88 -490 -79 -490 14 0 36 95 186 262 414 57 77 77 69 34 -15z
m764 -15 c18 -45 45 -108 61 -140 16 -32 29 -59 29 -62 0 -3 -15 0 -32 5 -18
5 -46 9 -61 9 -34 0 -48 28 -78 161 -23 98 -20 109 28 109 18 0 27 -14 53 -82z
m-602 57 c1 -1 -28 -61 -65 -134 l-68 -131 -50 -16 c-27 -9 -56 -19 -63 -22
-7 -2 17 44 54 104 37 60 78 132 90 161 23 52 23 52 61 46 21 -3 39 -7 41 -8z
m462 -76 c9 -42 22 -91 29 -109 6 -18 9 -35 7 -37 -7 -7 -99 44 -155 86 -58
44 -73 48 -89 29 -10 -12 -4 -38 23 -100 7 -17 4 -17 -35 -3 -23 8 -54 15 -67
15 -22 0 -25 -4 -21 -25 5 -22 0 -26 -31 -35 -53 -15 -53 -14 -25 40 26 50 27
80 1 80 -7 0 -41 -18 -76 -41 -34 -22 -65 -39 -67 -36 -2 2 20 48 50 103 l54
99 151 1 c83 0 153 3 156 6 3 3 22 5 42 4 l37 -1 16 -76z m-210 -244 c23 -17
29 -26 19 -29 -18 -7 -56 -10 -93 -8 l-30 2 29 30 c16 17 32 30 35 30 3 0 21
-11 40 -25z m55 -142 c50 -13 122 -27 160 -31 l70 -7 -3 -35 c-8 -98 -38 -148
-114 -186 -128 -65 -256 -63 -395 6 -84 41 -125 81 -138 130 -6 24 -3 26 63
43 80 21 200 76 221 101 9 10 20 14 30 10 9 -4 57 -18 106 -31z"/>
<path d="M2245 3054 c-75 -39 -115 -114 -115 -214 0 -79 23 -133 73 -177 86
-75 200 -45 262 68 78 145 -4 339 -144 339 -25 0 -59 -7 -76 -16z m143 -66
c91 -84 58 -271 -55 -309 -74 -24 -153 58 -153 161 0 96 78 188 149 176 19 -3
45 -16 59 -28z"/>
<path d="M2210 2847 c0 -25 4 -48 9 -51 5 -3 48 -9 96 -12 97 -8 105 -4 105
52 0 37 -5 39 -127 50 l-83 7 0 -46z m134 7 c37 -6 46 -10 46 -27 0 -18 -5
-19 -63 -14 -75 7 -97 15 -97 33 0 16 38 18 114 8z"/>
<path d="M999 3017 c-19 -12 -45 -43 -59 -67 -21 -38 -25 -58 -25 -125 1 -70
4 -87 30 -134 43 -78 93 -115 153 -115 57 0 99 26 134 82 20 32 23 50 23 132
0 102 -11 137 -64 193 -56 61 -132 75 -192 34z m121 -44 c40 -28 59 -55 75
-107 26 -86 13 -160 -37 -213 -49 -52 -139 -9 -174 84 -56 145 37 305 136 236z"/>
<path d="M1061 2845 c-35 -8 -65 -16 -67 -17 -1 -2 0 -23 3 -47 l6 -44 68 7
c97 9 119 19 119 55 0 66 -13 71 -129 46z m99 -38 c0 -21 -6 -25 -64 -33 -63
-10 -65 -9 -69 13 -4 19 2 24 37 32 75 16 96 14 96 -12z"/>
<path d="M2842 2513 c-56 -28 -65 -56 -82 -282 -14 -182 -24 -222 -66 -267
-38 -43 -40 -47 -20 -64 43 -35 323 -11 471 40 167 57 278 197 231 288 -45 87
-163 104 -287 41 l-37 -18 -7 57 c-11 101 -35 170 -67 197 -35 30 -87 33 -136
8z"/>
<path d="M2 2020 c0 -147 3 -195 10 -170 12 46 12 295 0 340 -7 26 -10 -20
-10 -170z"/>
<path d="M1403 923 c-20 -7 -15 -31 9 -44 20 -11 17 -13 -39 -34 -101 -36
-203 -102 -203 -131 0 -12 33 -87 120 -269 45 -96 58 -143 116 -422 3 -17 11
-23 31 -23 25 0 26 2 20 45 -19 137 -60 295 -97 370 -41 85 -118 259 -127 286
-6 20 96 78 183 105 33 10 67 23 77 30 12 8 32 9 65 2 26 -5 94 -9 151 -10
l103 -2 52 -54 c28 -30 84 -77 123 -103 l73 -49 -26 -68 c-24 -61 -104 -283
-104 -287 0 -8 -40 -45 -48 -45 -17 0 -22 -28 -22 -126 0 -93 0 -94 25 -94 24
0 24 2 27 87 3 84 4 87 32 102 24 14 34 34 71 146 23 72 56 167 74 212 18 46
29 87 26 93 -4 6 -41 33 -83 61 -74 50 -152 116 -152 130 0 3 23 9 51 11 56 6
75 18 65 43 -5 15 -15 16 -79 8 -39 -4 -137 -8 -217 -8 -116 1 -159 5 -215 21
-38 12 -76 19 -82 17z"/>
<path d="M1100 10 c-11 -7 -5 -10 23 -10 23 0 36 4 32 10 -8 13 -35 13 -55 0z"/>
</g>
</svg>
